<svg height="100" width="100" xmlns="http://www.w3.org/2000/svg" viewBox="0 0 96 96">
  <path d="M94 61H84v-4h8c0-10.756-4.572-12-8-12H70a1.993 1.993 0 01-1.6-.8L58.2 30.6a4.018 4.018 0 00-3.2-1.592H29a4.032 4.032 0 00-3.204 1.592L15.6 44.2c-.376.504-.972.8-1.6.8H4v12h8v4H2c-1.104 0-2-.9-2-2V43c0-1.1.896-2 2-2h11l9.6-12.8A8.052 8.052 0 0129 25h26a8.06 8.06 0 016.4 3.196L71 41h13c5.476 0 12 2.772 12 16v2c0 1.1-.9 2-2 2z"/>
  <path d="M28 57h40v4H28v-4z"/>
  <path d="M20 71c-5.512 0-10-4.484-10-10s4.488-10 10-10 10 4.484 10 10-4.488 10-10 10zm0-16c-3.308 0-6 2.692-6 6s2.692 6 6 6 6-2.692 6-6-2.692-6-6-6zM76 71c-5.512 0-10-4.484-10-10s4.488-10 10-10 10 4.484 10 10-4.488 10-10 10zm0-16c-3.308 0-6 2.692-6 6s2.692 6 6 6 6-2.692 6-6-2.692-6-6-6zM12 41h60v4H12v-4zM40 29h4v12h-4V29z"/>
</svg>