<svg width="443" height="584" viewBox="0 0 443 584" fill="none" xmlns="http://www.w3.org/2000/svg">
<path fill-rule="evenodd" clip-rule="evenodd" d="M293.059 491.911C362.46 407.349 442.964 309.26 442.964 221.632C442.964 99.5453 343.993 0.574493 221.907 0.574493C99.82 0.574493 0.849213 99.5453 0.849213 221.632C0.849213 312.554 91.0406 421.783 161.225 506.782C185.282 535.917 206.989 562.205 221.907 583.933C240.194 556.323 265.768 525.163 293.059 491.911ZM222.598 310.787C275.716 310.787 318.777 267.727 318.777 214.609C318.777 161.491 275.716 118.43 222.598 118.43C169.48 118.43 126.42 161.491 126.42 214.609C126.42 267.727 169.48 310.787 222.598 310.787Z" fill="#41B883"/>
<path fill-rule="evenodd" clip-rule="evenodd" d="M271.25 405.897C318.405 348.443 373.102 281.797 373.102 222.258C373.102 139.308 305.857 72.0626 222.907 72.0626C139.956 72.0626 72.7108 139.308 72.7108 222.258C72.7108 284.035 133.991 358.249 181.677 416.002C198.022 435.797 212.771 453.658 222.907 468.422C235.332 449.662 252.708 428.49 271.25 405.897ZM223.377 282.835C259.467 282.835 288.724 253.577 288.724 217.487C288.724 181.396 259.467 152.139 223.377 152.139C187.286 152.139 158.029 181.396 158.029 217.487C158.029 253.577 187.286 282.835 223.377 282.835Z" fill="#34495E"/>
</svg>
