<svg width="120" height="34" viewBox="0 0 2927 837" fill="none" xmlns="http://www.w3.org/2000/svg">
<rect x="13.2935" y="741.587" width="665.417" height="46" fill="#C7D8E2"/>
<path d="M13.4387 782.959C16.503 759.298 36.6547 741.587 60.5141 741.587H630.888C654.55 741.587 674.598 759.013 677.894 782.443V782.443C681.913 811.008 659.735 836.524 630.889 836.524H60.5141C31.8775 836.524 9.76093 811.359 13.4387 782.959V782.959Z" fill="#CFD9DF"/>
<path d="M84.9268 416.54C90.0554 393.719 110.32 377.503 133.71 377.503H553.345C576.435 377.503 596.522 393.314 601.946 415.759L677.581 728.759C685.184 760.219 661.347 790.503 628.98 790.503H63.3688C31.3324 790.503 7.56122 760.797 14.5856 729.54L84.9268 416.54Z" fill="#BCC6CC"/>
<path d="M459.915 384.721C467.721 379.999 476.67 377.503 485.794 377.503H553.345C576.435 377.503 596.522 393.314 601.946 415.759L677.582 728.759C685.184 760.219 661.347 790.503 628.98 790.503H63.6996C31.5575 790.503 7.7645 760.612 14.9734 729.289L30.3921 662.293C33.4252 649.114 41.6677 637.726 53.239 630.726L459.915 384.721Z" fill="#DDE4E9"/>
<path fill-rule="evenodd" clip-rule="evenodd" d="M623.199 502.647L463.083 592.809C416.439 558.735 377.277 547.841 335.864 536.321C326.946 533.841 317.924 531.331 308.701 528.555L246.056 570.018C299.36 583.053 374.824 609.822 430.964 660.153C435.668 664.371 440.022 668.628 444.057 672.901L233.58 790.148H304.194L466.682 701.586C484.53 728.993 491.933 755.06 497.273 773.862C499.118 780.358 500.716 785.986 502.414 790.503H592.577C588.041 768.295 560.384 682.815 512.621 635.532C505.852 628.831 499.26 622.643 492.824 616.917L631.715 538.222L623.199 502.647Z" fill="#BDC6CF"/>
<path d="M464.798 377.503L35.5877 638.521L16.6591 721.447L540.351 377.503H464.798Z" fill="white"/>
<path d="M464.798 377.503L35.5877 638.521L16.6591 721.447L540.351 377.503H464.798Z" fill="white"/>
<path fill-rule="evenodd" clip-rule="evenodd" d="M417.154 491.98C486.556 407.418 567.059 309.33 567.059 221.701C567.059 99.6147 468.089 0.643921 346.002 0.643921C223.915 0.643921 124.945 99.6147 124.945 221.701C124.945 312.623 215.136 421.852 285.321 506.851C309.378 535.986 331.084 562.274 346.002 584.003C364.289 556.393 389.863 525.232 417.154 491.98ZM346.694 310.857C399.812 310.857 442.872 267.796 442.872 214.678C442.872 161.56 399.812 118.499 346.694 118.499C293.576 118.499 250.515 161.56 250.515 214.678C250.515 267.796 293.576 310.857 346.694 310.857Z" fill="#41B883"/>
<path fill-rule="evenodd" clip-rule="evenodd" d="M395.346 405.967C442.5 348.512 497.198 281.866 497.198 222.328C497.198 139.377 429.953 72.1321 347.002 72.1321C264.051 72.1321 196.806 139.377 196.806 222.328C196.806 284.104 258.086 358.319 305.772 416.071C322.118 435.867 336.866 453.728 347.002 468.491C359.427 449.731 376.803 428.56 395.346 405.967ZM347.472 282.904C383.562 282.904 412.82 253.647 412.82 217.556C412.82 181.465 383.562 152.208 347.472 152.208C311.381 152.208 282.124 181.465 282.124 217.556C282.124 253.647 311.381 282.904 347.472 282.904Z" fill="#34495E"/>
<path d="M938.078 564.132L842.078 239.132H933.078L967.078 381.132C971.745 398.465 975.745 415.632 979.078 432.632C982.411 449.299 986.411 466.465 991.078 484.132H993.078C997.745 466.465 1001.74 449.299 1005.08 432.632C1008.74 415.632 1012.74 398.465 1017.08 381.132L1050.08 239.132H1138.08L1042.08 564.132H938.078Z" fill="#34495E"/>
<path d="M1223.07 570.132C1209.41 570.132 1197.57 567.799 1187.57 563.132C1177.91 558.132 1169.91 551.299 1163.57 542.632C1157.24 533.632 1152.57 522.965 1149.57 510.632C1146.57 497.965 1145.07 483.799 1145.07 468.132V314.132H1231.07V457.132C1231.07 473.132 1233.07 483.799 1237.07 489.132C1241.07 494.465 1247.41 497.132 1256.07 497.132C1264.07 497.132 1270.57 495.465 1275.57 492.132C1280.91 488.799 1286.41 483.132 1292.07 475.132V314.132H1378.07V564.132H1308.07L1302.07 531.132H1300.07C1290.07 543.132 1278.91 552.632 1266.57 559.632C1254.57 566.632 1240.07 570.132 1223.07 570.132Z" fill="#34495E"/>
<path d="M1552.14 570.132C1533.8 570.132 1516.8 567.299 1501.14 561.632C1485.47 555.632 1471.8 547.132 1460.14 536.132C1448.8 524.799 1439.8 510.965 1433.14 494.632C1426.47 478.299 1423.14 459.799 1423.14 439.132C1423.14 418.799 1426.47 400.632 1433.14 384.632C1440.14 368.299 1449.14 354.465 1460.14 343.132C1471.47 331.799 1484.3 323.132 1498.64 317.132C1512.97 311.132 1527.8 308.132 1543.14 308.132C1561.47 308.132 1577.47 311.299 1591.14 317.632C1604.8 323.965 1616.14 332.632 1625.14 343.632C1634.14 354.632 1640.8 367.465 1645.14 382.132C1649.8 396.799 1652.14 412.465 1652.14 429.132C1652.14 436.799 1651.64 443.965 1650.64 450.632C1649.97 457.299 1649.3 462.132 1648.64 465.132H1506.14C1510.14 480.132 1517.3 490.632 1527.64 496.632C1537.97 502.299 1550.14 505.132 1564.14 505.132C1572.8 505.132 1581.14 503.965 1589.14 501.632C1597.47 498.965 1606.14 495.132 1615.14 490.132L1643.14 541.132C1629.47 550.799 1614.3 558.132 1597.64 563.132C1581.3 567.799 1566.14 570.132 1552.14 570.132ZM1505.14 409.132H1579.14C1579.14 399.465 1576.64 391.132 1571.64 384.132C1566.97 376.799 1558.14 373.132 1545.14 373.132C1535.47 373.132 1526.97 375.965 1519.64 381.632C1512.64 387.299 1507.8 396.465 1505.14 409.132Z" fill="#34495E"/>
<path d="M1806.42 564.132V239.132H1898.42L1947.42 372.132C1950.42 381.132 1953.25 390.465 1955.92 400.132C1958.58 409.799 1961.42 419.465 1964.42 429.132H1966.42C1969.42 419.465 1972.25 409.799 1974.92 400.132C1977.58 390.465 1980.42 381.132 1983.42 372.132L2030.42 239.132H2122.42V564.132H2044.42V468.132C2044.42 459.799 2044.75 450.632 2045.42 440.632C2046.42 430.632 2047.42 420.465 2048.42 410.132C2049.42 399.465 2050.58 389.132 2051.92 379.132C2053.25 369.132 2054.42 360.132 2055.42 352.132H2053.42L2026.42 430.132L1986.42 537.632H1940.42L1900.42 430.132L1874.42 352.132H1872.42C1873.42 360.132 1874.58 369.132 1875.92 379.132C1877.25 389.132 1878.42 399.465 1879.42 410.132C1880.42 420.465 1881.25 430.632 1881.92 440.632C1882.92 450.632 1883.42 459.799 1883.42 468.132V564.132H1806.42Z" fill="#34495E"/>
<path d="M2252.6 570.132C2240.93 570.132 2230.43 568.132 2221.1 564.132C2211.77 559.799 2203.77 554.132 2197.1 547.132C2190.77 540.132 2185.93 531.965 2182.6 522.632C2179.27 513.299 2177.6 503.465 2177.6 493.132C2177.6 467.132 2188.27 446.799 2209.6 432.132C2230.93 417.132 2265.6 407.132 2313.6 402.132C2311.6 384.799 2299.93 376.132 2278.6 376.132C2269.6 376.132 2260.1 377.965 2250.1 381.632C2240.1 384.965 2228.6 390.132 2215.6 397.132L2185.6 341.132C2203.27 330.465 2221.1 322.299 2239.1 316.632C2257.1 310.965 2275.93 308.132 2295.6 308.132C2327.93 308.132 2353.27 317.465 2371.6 336.132C2390.27 354.465 2399.6 384.132 2399.6 425.132V564.132H2329.6L2323.6 540.132H2321.6C2311.6 549.132 2300.93 556.465 2289.6 562.132C2278.6 567.465 2266.27 570.132 2252.6 570.132ZM2282.6 504.132C2289.6 504.132 2295.27 502.632 2299.6 499.632C2304.27 496.299 2308.93 492.132 2313.6 487.132V453.132C2292.93 456.132 2278.77 460.632 2271.1 466.632C2263.43 472.632 2259.6 479.132 2259.6 486.132C2259.6 498.132 2267.27 504.132 2282.6 504.132Z" fill="#34495E"/>
<path d="M2455.67 652.132V314.132H2525.67L2531.67 337.132H2533.67C2543 328.465 2553.5 321.465 2565.17 316.132C2576.83 310.799 2589 308.132 2601.67 308.132C2616.33 308.132 2629.67 311.132 2641.67 317.132C2653.67 323.132 2663.83 331.632 2672.17 342.632C2680.83 353.632 2687.33 366.965 2691.67 382.632C2696.33 398.299 2698.67 415.799 2698.67 435.132C2698.67 456.799 2695.67 475.965 2689.67 492.632C2684 509.299 2676.33 523.465 2666.67 535.132C2657 546.465 2645.83 555.132 2633.17 561.132C2620.83 567.132 2608 570.132 2594.67 570.132C2574 570.132 2555.33 561.799 2538.67 545.132L2541.67 583.132V652.132H2455.67ZM2573.67 500.132C2583.67 500.132 2592.33 495.465 2599.67 486.132C2607 476.799 2610.67 460.132 2610.67 436.132C2610.67 415.465 2607.67 400.632 2601.67 391.632C2596 382.632 2587.33 378.132 2575.67 378.132C2569 378.132 2563 379.465 2557.67 382.132C2552.67 384.799 2547.33 389.465 2541.67 396.132V488.132C2546.67 492.799 2551.83 495.965 2557.17 497.632C2562.5 499.299 2568 500.132 2573.67 500.132Z" fill="#34495E"/>
<path d="M2819.78 570.132C2803.78 570.132 2786.78 566.965 2768.78 560.632C2751.11 554.299 2735.78 545.799 2722.78 535.132L2760.78 482.132C2783.44 498.799 2803.78 507.132 2821.78 507.132C2830.78 507.132 2837.11 505.965 2840.78 503.632C2844.78 500.965 2846.78 497.132 2846.78 492.132C2846.78 488.799 2845.44 485.965 2842.78 483.632C2840.11 480.965 2836.44 478.632 2831.78 476.632C2827.44 474.299 2822.44 472.132 2816.78 470.132C2811.11 468.132 2805.11 465.799 2798.78 463.132C2791.44 460.132 2783.94 456.632 2776.28 452.632C2768.94 448.299 2762.28 443.132 2756.28 437.132C2750.28 431.132 2745.28 424.299 2741.28 416.632C2737.61 408.632 2735.78 399.465 2735.78 389.132C2735.78 376.799 2738.11 365.632 2742.78 355.632C2747.78 345.632 2754.61 337.132 2763.28 330.132C2771.94 323.132 2782.28 317.799 2794.28 314.132C2806.61 310.132 2820.11 308.132 2834.78 308.132C2855.44 308.132 2873.11 311.632 2887.78 318.632C2902.78 325.299 2915.78 332.799 2926.78 341.132L2888.78 392.132C2879.78 385.465 2870.94 380.299 2862.28 376.632C2853.61 372.965 2845.44 371.132 2837.78 371.132C2823.11 371.132 2815.78 375.799 2815.78 385.132C2815.78 388.465 2816.94 391.299 2819.28 393.632C2821.94 395.965 2825.44 398.132 2829.78 400.132C2834.11 402.132 2839.11 404.132 2844.78 406.132C2850.44 407.799 2856.44 409.799 2862.78 412.132C2870.11 414.799 2877.61 418.132 2885.28 422.132C2892.94 426.132 2899.78 431.132 2905.78 437.132C2912.11 442.799 2917.11 449.799 2920.78 458.132C2924.78 466.132 2926.78 475.799 2926.78 487.132C2926.78 498.799 2924.44 509.799 2919.78 520.132C2915.11 530.132 2908.28 538.965 2899.28 546.632C2890.28 553.965 2879.11 559.799 2865.78 564.132C2852.44 568.132 2837.11 570.132 2819.78 570.132Z" fill="#34495E"/>
</svg>
