<svg width="42" height="28" viewBox="0 0 42 28" fill="none" xmlns="http://www.w3.org/2000/svg">
<g filter="url(#filter0_d)">
<path d="M6 7C6 5.34315 7.34315 4 9 4H31C33.7614 4 36 6.23858 36 9V15C36 17.7614 33.7614 20 31 20H9C7.34315 20 6 18.6569 6 17V7Z" fill="#C674BE"/>
</g>
<path fill-rule="evenodd" clip-rule="evenodd" d="M9 4C7.34315 4 6 5.34315 6 7V17C6 18.6569 7.34315 20 9 20H31C33.7614 20 36 17.7614 36 15V9C36 6.23858 33.7614 4 31 4H9ZM9.99998 6C9.15213 6 8.44582 6.6499 8.37541 7.49482L8.35292 7.7647C8.11804 10.5833 8.11804 13.4167 8.35292 16.2353L8.37541 16.5052C8.44582 17.3501 9.15213 18 9.99998 18L9.79958 16.1964C9.48969 13.4074 9.48969 10.5926 9.79958 7.8036L9.99998 6ZM22.9995 6H27.4554C27.926 6 28.3401 6.31059 28.4719 6.76235C29.4695 10.1829 29.4695 13.8171 28.4719 17.2376C28.3401 17.6894 27.926 18 27.4554 18H22.9995L23.2597 16.4388C23.7495 13.4999 23.7495 10.5001 23.2597 7.56123L22.9995 6Z" fill="#3C3C3C"/>
<defs>
<filter id="filter0_d" x="0" y="0" width="42" height="28" filterUnits="userSpaceOnUse" color-interpolation-filters="sRGB">
<feFlood flood-opacity="0" result="BackgroundImageFix"/>
<feColorMatrix in="SourceAlpha" type="matrix" values="0 0 0 0 0 0 0 0 0 0 0 0 0 0 0 0 0 0 127 0"/>
<feOffset dy="2"/>
<feGaussianBlur stdDeviation="3"/>
<feColorMatrix type="matrix" values="0 0 0 0 0 0 0 0 0 0 0 0 0 0 0 0 0 0 0.2 0"/>
<feBlend mode="normal" in2="BackgroundImageFix" result="effect1_dropShadow"/>
<feBlend mode="normal" in="SourceGraphic" in2="effect1_dropShadow" result="shape"/>
</filter>
</defs>
</svg>
