<svg width="692" height="837" viewBox="0 0 692 837" fill="none" xmlns="http://www.w3.org/2000/svg">
<rect x="12.7915" y="741.084" width="665.417" height="46" fill="#C7D8E2"/>
<path d="M12.9368 782.456C16.001 758.795 36.1528 741.084 60.0122 741.084H630.387C654.048 741.084 674.096 758.51 677.392 781.94V781.94C681.411 810.505 659.233 836.021 630.387 836.021H60.0122C31.3756 836.021 9.25897 810.856 12.9368 782.456V782.456Z" fill="#C7D8E2"/>
<path d="M84.4249 416.037C89.5535 393.216 109.818 377 133.208 377H552.843C575.933 377 596.02 392.811 601.444 415.256L677.08 728.256C684.682 759.716 660.845 790 628.478 790H62.8669C30.8305 790 7.0593 760.294 14.0837 729.037L84.4249 416.037Z" fill="#ABD4EB"/>
<path d="M459.413 384.218C467.219 379.496 476.169 377 485.292 377H552.843C575.933 377 596.02 392.811 601.444 415.256L677.08 728.256C684.682 759.716 660.845 790 628.478 790H63.1977C31.0556 790 7.26258 760.109 14.4715 728.786L29.8902 661.791C32.9233 648.611 41.1657 637.223 52.7371 630.223L459.413 384.218Z" fill="#B4EBAB"/>
<path fill-rule="evenodd" clip-rule="evenodd" d="M622.697 502.144L462.581 592.306C415.937 558.232 376.775 547.338 335.362 535.819C326.444 533.338 317.422 530.828 308.199 528.052L245.554 569.515C298.858 582.55 374.323 609.319 430.462 659.65C435.166 663.868 439.52 668.125 443.555 672.398L233.078 789.645H303.692L466.18 701.083C484.028 728.49 491.431 754.557 496.771 773.359C498.616 779.855 500.214 785.483 501.912 790H592.075C587.539 767.792 559.882 682.312 512.119 635.029C505.35 628.328 498.758 622.14 492.322 616.414L631.213 537.72L622.697 502.144Z" fill="#FFEC89"/>
<path d="M464.296 377L35.0858 638.018L16.1572 720.944L539.849 377H464.296Z" fill="white"/>
<path d="M464.296 377L35.0858 638.018L16.1572 720.944L539.849 377H464.296Z" fill="white"/>
<path fill-rule="evenodd" clip-rule="evenodd" d="M416.652 491.477C486.054 406.916 566.557 308.827 566.557 221.198C566.557 99.1118 467.587 0.141052 345.5 0.141052C223.413 0.141052 124.443 99.1118 124.443 221.198C124.443 312.12 214.634 421.349 284.819 506.349C308.876 535.483 330.582 561.772 345.5 583.5C363.787 555.89 389.361 524.729 416.652 491.477ZM346.192 310.354C399.31 310.354 442.37 267.293 442.37 214.175C442.37 161.057 399.31 117.997 346.192 117.997C293.074 117.997 250.013 161.057 250.013 214.175C250.013 267.293 293.074 310.354 346.192 310.354Z" fill="#EB5757"/>
</svg>
