<svg width="692" height="837" viewBox="0 0 692 837" fill="none" xmlns="http://www.w3.org/2000/svg">
<rect x="12.6903" y="741.084" width="665.417" height="46" fill="#C7D8E2"/>
<path d="M12.8356 782.456C15.8998 758.795 36.0516 741.084 59.911 741.084H630.285C653.947 741.084 673.995 758.51 677.291 781.94V781.94C681.309 810.505 659.131 836.021 630.285 836.021H59.911C31.2744 836.021 9.15778 810.856 12.8356 782.456V782.456Z" fill="#CFD9DF"/>
<path d="M84.3236 416.037C89.4522 393.216 109.717 377 133.107 377H552.742C575.832 377 595.919 392.811 601.343 415.256L676.978 728.256C684.581 759.716 660.743 790 628.377 790H62.7657C30.7293 790 6.95807 760.294 13.9825 729.037L84.3236 416.037Z" fill="#BCC6CC"/>
<path d="M459.311 384.218C467.118 379.496 476.067 377 485.191 377H552.742C575.832 377 595.919 392.811 601.343 415.256L676.978 728.256C684.581 759.716 660.743 790 628.377 790H63.0964C30.9543 790 7.16135 760.109 14.3703 728.786L29.7889 661.791C32.8221 648.611 41.0645 637.223 52.6359 630.223L459.311 384.218Z" fill="#DDE4E9"/>
<path fill-rule="evenodd" clip-rule="evenodd" d="M622.595 502.144L462.48 592.306C415.836 558.232 376.674 547.338 335.26 535.819C326.343 533.338 317.321 530.828 308.098 528.052L245.453 569.515C298.757 582.55 374.221 609.319 430.361 659.65C435.065 663.868 439.419 668.125 443.454 672.398L232.977 789.645H303.591L466.079 701.083C483.926 728.49 491.33 754.557 496.67 773.359C498.515 779.855 500.113 785.483 501.811 790H591.974C587.437 767.792 559.781 682.312 512.018 635.029C505.249 628.328 498.657 622.14 492.221 616.414L631.112 537.72L622.595 502.144Z" fill="#BDC6CF"/>
<path d="M464.195 377L34.9846 638.018L16.056 720.944L539.748 377H464.195Z" fill="white"/>
<path d="M464.195 377L34.9846 638.018L16.056 720.944L539.748 377H464.195Z" fill="white"/>
<path fill-rule="evenodd" clip-rule="evenodd" d="M416.551 491.477C485.953 406.916 566.456 308.827 566.456 221.198C566.456 99.1118 467.485 0.141052 345.399 0.141052C223.312 0.141052 124.341 99.1118 124.341 221.198C124.341 312.12 214.533 421.349 284.717 506.349C308.774 535.483 330.481 561.772 345.399 583.5C363.686 555.89 389.26 524.729 416.551 491.477ZM346.09 310.354C399.208 310.354 442.269 267.293 442.269 214.175C442.269 161.057 399.208 117.997 346.09 117.997C292.972 117.997 249.912 161.057 249.912 214.175C249.912 267.293 292.972 310.354 346.09 310.354Z" fill="#41B883"/>
<path fill-rule="evenodd" clip-rule="evenodd" d="M394.743 405.464C441.897 348.009 496.595 281.364 496.595 221.825C496.595 138.874 429.35 71.6292 346.399 71.6292C263.448 71.6292 196.203 138.874 196.203 221.825C196.203 283.601 257.483 357.816 305.169 415.568C321.515 435.364 336.263 453.225 346.399 467.988C358.824 449.229 376.2 428.057 394.743 405.464ZM346.869 282.401C382.959 282.401 412.217 253.144 412.217 217.053C412.217 180.962 382.959 151.705 346.869 151.705C310.778 151.705 281.521 180.962 281.521 217.053C281.521 253.144 310.778 282.401 346.869 282.401Z" fill="#34495E"/>
</svg>
